<svg version="1.1" xmlns="http://www.w3.org/2000/svg" xmlns:xlink="http://www.w3.org/1999/xlink" width="107" height="44" viewBox="0,0,256,105.27084"><g fill="#ffffff" fill-rule="nonzero" stroke="none" stroke-width="1" stroke-linecap="butt" stroke-linejoin="miter" stroke-miterlimit="10" stroke-dasharray="" stroke-dashoffset="0" font-family="none" font-weight="none" font-size="none" text-anchor="none" style="mix-blend-mode: normal"><g transform="translate(-1.06088,1.00118) scale(2.39252,2.39252)"><path d="M26.5828,8.332c0,1.87 -0.484,3.586 -1.452,5.148c-0.968,1.562 -2.376,2.838 -4.224,3.828c-1.848,0.99 -4.048,1.573 -6.6,1.749l-1.419,7.953c-0.55,3.058 -2.046,4.587 -4.48797,4.587c-1.342,0 -2.585,-0.396 -3.729,-1.188c-1.122,-0.792 -2.024,-2.002 -2.706,-3.63c-0.682,-1.628 -1.023,-3.63 -1.023,-6.006c0,-4.466 0.715,-8.25 2.145,-11.352c1.452,-3.124 3.388,-5.456 5.808,-6.996c2.44197,-1.562 5.12597,-2.343 8.05197,-2.343c2.068,0 3.817,0.363 5.247,1.089c1.452,0.726 2.541,1.716 3.267,2.97c0.748,1.232 1.122,2.629 1.122,4.191zM14.9008,15.658c4.51,-0.572 6.765,-2.915 6.765,-7.029c0,-1.452 -0.484,-2.629 -1.452,-3.531c-0.946,-0.924 -2.42,-1.386 -4.422,-1.386c-2.266,0 -4.246,0.715 -5.93997,2.145c-1.672,1.43 -2.97,3.421 -3.894,5.973c-0.902,2.53 -1.353,5.423 -1.353,8.679c0,1.364 0.132,2.574 0.396,3.63c0.286,1.056 0.638,1.881 1.056,2.475c0.44,0.572 0.858,0.858 1.254,0.858c0.55,0 0.968,-0.759 1.254,-2.277l1.089,-6.237c-0.858,-0.132 -1.232,-0.187 -1.122,-0.165c-0.66,-0.11 -1.089,-0.308 -1.287,-0.594c-0.198,-0.308 -0.297,-0.693 -0.297,-1.155c0,-0.484 0.132,-0.869 0.396,-1.155c0.286,-0.286 0.671,-0.429 1.155,-0.429c0.22,0 0.385,0.011 0.495,0.033c0.528,0.088 0.935,0.143 1.22097,0.165c0.286,-1.716 0.693,-4.015 1.221,-6.897c0.132,-0.748 0.429,-1.276 0.891,-1.584c0.484,-0.33 1.045,-0.495 1.683,-0.495c0.726,0 1.243,0.143 1.551,0.429c0.33,0.264 0.495,0.693 0.495,1.287c0,0.352 -0.022,0.638 -0.066,0.858zM42.749,17.869c0.286,0 0.506,0.143 0.66,0.429c0.154,0.286 0.231,0.649 0.231,1.089c0,1.056 -0.319,1.683 -0.957,1.881c-1.32,0.462 -2.772,0.726 -4.356,0.792c-0.418,1.848 -1.243,3.333 -2.475,4.455c-1.232,1.1 -2.629,1.65 -4.191,1.65c-1.32,0 -2.453,-0.319 -3.399,-0.957c-0.924,-0.638 -1.628,-1.485 -2.112,-2.541c-0.484,-1.056 -0.726,-2.2 -0.726,-3.432c0,-1.672 0.319,-3.157 0.957,-4.455c0.638,-1.32 1.518,-2.343 2.64,-3.069c1.122,-0.748 2.365,-1.122 3.729,-1.122c1.672,0 3.014,0.583 4.026,1.749c1.034,1.144 1.639,2.563 1.815,4.257c1.034,-0.066 2.266,-0.286 3.696,-0.66c0.176,-0.044 0.33,-0.066 0.462,-0.066zM31.925,24.667c0.704,0 1.309,-0.286 1.815,-0.858c0.528,-0.572 0.88,-1.397 1.056,-2.475c-0.682,-0.462 -1.21,-1.067 -1.584,-1.815c-0.352,-0.748 -0.528,-1.54 -0.528,-2.376c0,-0.352 0.033,-0.704 0.099,-1.056h-0.165c-0.88,0 -1.617,0.429 -2.211,1.287c-0.572,0.836 -0.858,2.024 -0.858,3.564c0,1.21 0.231,2.134 0.693,2.772c0.484,0.638 1.045,0.957 1.683,0.957zM43.1506,28.165c-0.836,0 -1.43,-0.44 -1.782,-1.32c-0.33,-0.88 -0.495,-2.288 -0.495,-4.224c0,-2.86 0.407,-5.577 1.221,-8.151c0.198,-0.638 0.517,-1.1 0.957,-1.386c0.462,-0.308 1.1,-0.462 1.914,-0.462c0.44,0 0.748,0.055 0.924,0.165c0.176,0.11 0.264,0.319 0.264,0.627c0,0.352 -0.165,1.144 -0.495,2.376c-0.22,0.88 -0.396,1.65 -0.528,2.31c-0.132,0.638 -0.242,1.441 -0.33,2.409c0.594,-1.716 1.298,-3.168 2.112,-4.356c0.836,-1.188 1.683,-2.068 2.541,-2.64c0.88,-0.594 1.705,-0.891 2.475,-0.891c0.77,0 1.309,0.176 1.617,0.528c0.33,0.352 0.495,0.891 0.495,1.617c0,0.704 -0.209,1.98 -0.627,3.828c-0.176,0.792 -0.297,1.386 -0.363,1.782c1.1,-2.706 2.321,-4.675 3.663,-5.907c1.342,-1.232 2.596,-1.848 3.762,-1.848c1.43,0 2.145,0.715 2.145,2.145c0,0.858 -0.242,2.409 -0.726,4.653c-0.418,1.914 -0.627,3.179 -0.627,3.795c0,0.88 0.319,1.32 0.957,1.32c0.44,0 0.957,-0.264 1.551,-0.792c0.616,-0.55 1.43,-1.43 2.442,-2.64c0.264,-0.308 0.561,-0.462 0.891,-0.462c0.286,0 0.506,0.132 0.66,0.396c0.176,0.264 0.264,0.627 0.264,1.089c0,0.88 -0.209,1.562 -0.627,2.046c-0.946,1.166 -1.969,2.123 -3.069,2.871c-1.078,0.748 -2.31,1.122 -3.696,1.122c-1.122,0 -1.969,-0.319 -2.541,-0.957c-0.572,-0.66 -0.858,-1.606 -0.858,-2.838c0,-0.616 0.154,-1.716 0.462,-3.3c0.286,-1.386 0.429,-2.343 0.429,-2.871c0,-0.352 -0.121,-0.528 -0.363,-0.528c-0.286,0 -0.693,0.374 -1.221,1.122c-0.528,0.726 -1.056,1.694 -1.584,2.904c-0.528,1.21 -0.957,2.486 -1.287,3.828c-0.242,1.056 -0.528,1.76 -0.858,2.112c-0.308,0.352 -0.814,0.528 -1.518,0.528c-0.726,0 -1.276,-0.341 -1.65,-1.023c-0.352,-0.704 -0.528,-1.551 -0.528,-2.541c0,-0.836 0.11,-2.046 0.33,-3.63c0.176,-1.408 0.264,-2.332 0.264,-2.772c0,-0.352 -0.121,-0.528 -0.363,-0.528c-0.33,0 -0.748,0.396 -1.254,1.188c-0.506,0.792 -1.001,1.804 -1.485,3.036c-0.462,1.232 -0.836,2.442 -1.122,3.63c-0.242,1.034 -0.528,1.738 -0.858,2.112c-0.308,0.352 -0.803,0.528 -1.485,0.528zM82.9863,20.641c0.286,0 0.506,0.132 0.66,0.396c0.176,0.264 0.264,0.627 0.264,1.089c0,0.88 -0.209,1.562 -0.627,2.046c-0.946,1.166 -1.969,2.123 -3.069,2.871c-1.078,0.748 -2.31,1.122 -3.696,1.122c-1.166,0 -2.112,-0.418 -2.838,-1.254c-1.254,0.814 -2.563,1.232 -3.927,1.254c-0.286,4.246 -0.935,7.788 -1.947,10.626c-1.012,2.86 -2.497,4.29 -4.455,4.29c-1.188,0 -2.068,-0.429 -2.64,-1.287c-0.572,-0.858 -0.858,-2.046 -0.858,-3.564c0,-2.156 0.495,-4.675 1.485,-7.557c0.99,-2.86 2.519,-6.017 4.587,-9.471c0,-3.212 -0.022,-5.445 -0.066,-6.699c-0.022,-0.638 0.231,-1.144 0.759,-1.518c0.528,-0.374 1.188,-0.561 1.98,-0.561c0.462,0 0.792,0.099 0.99,0.297c0.22,0.176 0.341,0.539 0.363,1.089c0,0.55 0.011,0.957 0.033,1.221c0.704,-0.88 1.397,-1.507 2.079,-1.881c0.682,-0.396 1.408,-0.594 2.178,-0.594c1.232,0 2.233,0.495 3.003,1.485c0.792,0.99 1.188,2.288 1.188,3.894c0,1.166 -0.187,2.299 -0.561,3.399c-0.374,1.1 -0.891,2.101 -1.551,3.003c0.462,0.132 0.847,0.198 1.155,0.198c0.726,0 1.419,-0.264 2.079,-0.792c0.66,-0.528 1.507,-1.408 2.541,-2.64c0.264,-0.308 0.561,-0.462 0.891,-0.462zM69.9183,24.997c0.792,-0.176 1.518,-0.605 2.178,-1.287c0.682,-0.704 1.221,-1.562 1.617,-2.574c0.396,-1.034 0.594,-2.112 0.594,-3.234c0,-0.66 -0.132,-1.155 -0.396,-1.485c-0.264,-0.352 -0.616,-0.528 -1.056,-0.528c-0.792,0 -1.749,0.836 -2.871,2.508c-0.022,0.968 -0.033,2.387 -0.033,4.257c0,1.012 -0.011,1.793 -0.033,2.343zM63.6153,39.847c0.594,0 1.089,-1.298 1.485,-3.894c0.396,-2.574 0.649,-5.786 0.759,-9.636c-0.946,2.2 -1.694,4.301 -2.244,6.303c-0.55,2.002 -0.825,3.685 -0.825,5.049c0,0.704 0.088,1.243 0.264,1.617c0.154,0.374 0.341,0.561 0.561,0.561zM95.97,20.641c0.286,0 0.506,0.132 0.66,0.396c0.176,0.264 0.264,0.627 0.264,1.089c0,0.88 -0.209,1.562 -0.627,2.046c-0.814,0.99 -1.969,1.903 -3.465,2.739c-1.474,0.836 -3.058,1.254 -4.752,1.254c-2.31,0 -4.103,-0.627 -5.379,-1.881c-1.276,-1.254 -1.914,-2.97 -1.914,-5.148c0,-1.518 0.319,-2.926 0.957,-4.224c0.638,-1.32 1.518,-2.365 2.64,-3.135c1.144,-0.77 2.431,-1.155 3.861,-1.155c1.276,0 2.299,0.385 3.069,1.155c0.77,0.748 1.155,1.771 1.155,3.069c0,1.518 -0.55,2.827 -1.65,3.927c-1.078,1.078 -2.915,1.936 -5.511,2.574c0.55,1.012 1.595,1.518 3.135,1.518c0.99,0 2.112,-0.341 3.366,-1.023c1.276,-0.704 2.376,-1.617 3.3,-2.739c0.264,-0.308 0.561,-0.462 0.891,-0.462zM87.654,15.856c-0.814,0 -1.507,0.473 -2.079,1.419c-0.55,0.946 -0.825,2.09 -0.825,3.432v0.066c1.298,-0.308 2.321,-0.77 3.069,-1.386c0.748,-0.616 1.122,-1.331 1.122,-2.145c0,-0.418 -0.121,-0.748 -0.363,-0.99c-0.22,-0.264 -0.528,-0.396 -0.924,-0.396zM99.784,28.165c-1.298,0 -2.409,-0.319 -3.333,-0.957c-0.902,-0.66 -1.584,-1.518 -2.046,-2.574c-0.462,-1.056 -0.693,-2.189 -0.693,-3.399c0,-1.672 0.308,-3.157 0.924,-4.455c0.638,-1.32 1.496,-2.343 2.574,-3.069c1.078,-0.748 2.288,-1.122 3.63,-1.122c1.298,0 2.409,0.33 3.333,0.99c0.924,0.638 1.617,1.485 2.079,2.541c0.462,1.056 0.693,2.189 0.693,3.399c0,1.672 -0.319,3.168 -0.957,4.488c-0.638,1.298 -1.507,2.321 -2.607,3.069c-1.078,0.726 -2.277,1.089 -3.597,1.089zM100.147,24.601c0.748,0 1.375,-0.407 1.881,-1.221c0.528,-0.814 0.792,-2.002 0.792,-3.564c0,-1.21 -0.22,-2.123 -0.66,-2.739c-0.44,-0.616 -0.968,-0.924 -1.584,-0.924c-0.792,0 -1.452,0.407 -1.98,1.221c-0.506,0.792 -0.759,1.98 -0.759,3.564c0,1.254 0.22,2.178 0.66,2.772c0.44,0.594 0.99,0.891 1.65,0.891z"></path></g></g></svg>